<svg id="Layer_1" data-name="Layer 1" xmlns="http://www.w3.org/2000/svg" viewBox="0 0 309.85 36.48"><defs><style>.cls-1{fill:#535453;}.cls-2{fill:#e01e48;}</style></defs><title>agape-logo-final</title><path class="cls-1" d="M0.09,30.74L13.92,1A0.9,0.9,0,0,1,14.67.52h0.44a0.9,0.9,0,0,1,.75.49L29.7,30.74a0.78,0.78,0,0,1-.75,1.15H24a1.48,1.48,0,0,1-1.55-1.1L20.9,27.3h-12L7.29,30.83A1.65,1.65,0,0,1,5.7,31.89H0.84A0.78,0.78,0,0,1,.09,30.74Zm18.16-9.46L14.89,14h0l-3.31,7.29h6.72Z"/><path class="cls-1" d="M48.92,0.56A17.06,17.06,0,0,1,59.7,4.72a0.78,0.78,0,0,1,.09,1.19L56.3,9.62a0.93,0.93,0,0,1-1.19,0,8.13,8.13,0,0,0-5.79-2.12,8.86,8.86,0,0,0,0,17.72,10.44,10.44,0,0,0,3.93-.71V22H50.51a0.8,0.8,0,0,1-.84-0.8V16.82A0.81,0.81,0,0,1,50.51,16h8.88a0.83,0.83,0,0,1,.8.84l0,11.89a1.09,1.09,0,0,1-.35.71,22.33,22.33,0,0,1-11,2.87A15.86,15.86,0,1,1,48.92.56Z"/><path class="cls-1" d="M64.51,30.74L78.35,1A0.9,0.9,0,0,1,79.1.52h0.44a0.9,0.9,0,0,1,.75.49L94.12,30.74a0.78,0.78,0,0,1-.75,1.15h-4.9a1.48,1.48,0,0,1-1.55-1.1L85.33,27.3h-12l-1.59,3.54a1.65,1.65,0,0,1-1.59,1.06H65.27A0.78,0.78,0,0,1,64.51,30.74Zm18.16-9.46L79.32,14h0L76,21.29h6.72Z"/><path class="cls-1" d="M100,1.8A0.84,0.84,0,0,1,100.79,1h10.65a9.88,9.88,0,0,1,9.9,9.77,9.94,9.94,0,0,1-9.85,9.94h-4.64V31.05a0.87,0.87,0,0,1-.84.84h-5.21a0.84,0.84,0,0,1-.84-0.84V1.8ZM111,14.22a3.47,3.47,0,0,0,3.49-3.49A3.37,3.37,0,0,0,111,7.46h-4.2v6.76H111Z"/><path class="cls-1" d="M128.06,1.8A0.84,0.84,0,0,1,128.9,1h18.29a0.84,0.84,0,0,1,.84.84V6.62a0.84,0.84,0,0,1-.84.84H134.95v5.48H145a0.87,0.87,0,0,1,.84.84v4.82a0.84,0.84,0,0,1-.84.84H134.95v6h12.24a0.84,0.84,0,0,1,.84.84v4.82a0.84,0.84,0,0,1-.84.84H128.9a0.84,0.84,0,0,1-.84-0.84V1.8Z"/><path class="cls-1" d="M222.84,1.91a0.84,0.84,0,0,1,.84-0.84h13.21a9.61,9.61,0,0,1,9.63,9.54c0,4.07-2.7,7.34-6.54,8.88L246,30.73a0.84,0.84,0,0,1-.75,1.28h-5.88a0.81,0.81,0,0,1-.71-0.4L232.83,19.9h-3V31.17a0.87,0.87,0,0,1-.84.84h-5.26a0.84,0.84,0,0,1-.84-0.84V1.91Zm13.48,12.37a3.54,3.54,0,0,0,3.36-3.54,3.39,3.39,0,0,0-3.36-3.36h-6.54v6.89h6.54Z"/><path class="cls-1" d="M254.65,1.91a0.84,0.84,0,0,1,.84-0.84h18.29a0.84,0.84,0,0,1,.84.84V6.73a0.84,0.84,0,0,1-.84.84H261.55V13h10.08a0.87,0.87,0,0,1,.84.84v4.82a0.84,0.84,0,0,1-.84.84H261.55v6h12.24a0.84,0.84,0,0,1,.84.84v4.82a0.84,0.84,0,0,1-.84.84H255.49a0.84,0.84,0,0,1-.84-0.84V1.91Z"/><path class="cls-1" d="M282.76,1.91a0.83,0.83,0,0,1,.8-0.84h10.78a15.47,15.47,0,1,1,0,30.93H283.55a0.83,0.83,0,0,1-.8-0.84V1.91ZM293.9,25.47c5,0,8.62-3.93,8.62-9a8.59,8.59,0,0,0-8.62-8.93h-4.24v17.9h4.24Z"/><path class="cls-2" d="M186,36.48l-1.24-1c-0.07-.06-6.95-5.6-10.87-8.65a25.88,25.88,0,0,1-7.87-9.32,12.31,12.31,0,0,1,5.24-15.85A13.05,13.05,0,0,1,177.61,0,12.7,12.7,0,0,1,186,3.33,12.71,12.71,0,0,1,194.45,0a13,13,0,0,1,6.31,1.66A12.33,12.33,0,0,1,206,17.51a25.9,25.9,0,0,1-7.87,9.32c-3.56,2.77-10.8,8.59-10.87,8.65Z"/></svg>